HIERARCHY
ROOT Hips
{
     OFFSET 1.88212 96.90440 -13.34250
     CHANNELS 6 Xposition Yposition Zposition Zrotation Xrotation Yrotation
     JOINT Spine
     {
          OFFSET 0.00000 11.89050 0.00000
          CHANNELS 3 Zrotation Xrotation Yrotation
          JOINT Spine1
          {
               OFFSET -0.00000 25.65740 0.12766
               CHANNELS 3 Zrotation Xrotation Yrotation
               JOINT HEad
               {
                    OFFSET 0.00000 8.73416 0.01134
                    CHANNELS 3 Zrotation Xrotation Yrotation
                    End Site
                    {
                         OFFSET -0.29000 12.77420 2.51395
                    }
               }
               JOINT LeftShoulder1
               {
                    OFFSET 8.99000 -0.36225 -0.22000
                    CHANNELS 3 Zrotation Xrotation Yrotation
                    JOINT LeftArm
                    {
                         OFFSET 10.28270 -0.00338 0.32212
                         CHANNELS 3 Zrotation Xrotation Yrotation
                         JOINT LeftForeArm
                         {
                              OFFSET 32.76690 0.09914 -1.42434
                              CHANNELS 3 Zrotation Xrotation Yrotation
                              JOINT LeftHand
                              {
                                   OFFSET 27.56430 0.08536 1.02216
                                   CHANNELS 3 Zrotation Xrotation Yrotation
                                   End Site
                                   {
                                        OFFSET 16.74430 -0.60000 1.50291
                                   }
                              }
                         }
                    }
               }
               JOINT RightShoulder
               {
                    OFFSET -8.99000 -0.36225 -0.22000
                    CHANNELS 3 Zrotation Xrotation Yrotation
                    JOINT RightArm
                    {
                         OFFSET -10.28270 -0.00338 0.32212
                         CHANNELS 3 Zrotation Xrotation Yrotation
                         JOINT RightForeArm
                         {
                              OFFSET -32.89710 0.09914 -1.42434
                              CHANNELS 3 Zrotation Xrotation Yrotation
                              JOINT RightHand
                              {
                                   OFFSET -27.49210 0.08536 1.02216
                                   CHANNELS 3 Zrotation Xrotation Yrotation
                                   End Site
                                   {
                                        OFFSET -16.63120 -0.60000 1.50291
                                   }
                              }
                         }
                    }
               }
          }
     }
     JOINT LeftUpLeg
     {
          OFFSET 8.94580 -8.66707 0.10165
          CHANNELS 3 Zrotation Xrotation Yrotation
          JOINT LeftLeg
          {
               OFFSET 0.00000 -44.42270 1.37270
               CHANNELS 3 Zrotation Xrotation Yrotation
               JOINT LeftFoot
               {
                    OFFSET -0.25355 -42.09240 -1.46059
                    CHANNELS 3 Zrotation Xrotation Yrotation
                    JOINT LeftToes
                    {
                         OFFSET -0.04000 -4.41509 8.49910
                         CHANNELS 3 Zrotation Xrotation Yrotation
                         End Site
                         {
                              OFFSET 0.08000 -0.04745 9.77979
                         }
                    }
               }
          }
     }
     JOINT RightUpLeg
     {
          OFFSET -8.94580 -8.66707 0.10165
          CHANNELS 3 Zrotation Xrotation Yrotation
          JOINT RightLeg
          {
               OFFSET 0.00000 -44.42270 1.37270
               CHANNELS 3 Zrotation Xrotation Yrotation
               JOINT RightFoot
               {
                    OFFSET 0.25355 -42.09240 -1.46059
                    CHANNELS 3 Zrotation Xrotation Yrotation
                    JOINT RightToes
                    {
                         OFFSET 0.04000 -4.41509 8.49910
                         CHANNELS 3 Zrotation Xrotation Yrotation
                         End Site
                         {
                              OFFSET -0.08000 -0.13745 9.77979
                         }
                    }
               }
          }
     }
}
MOTION
Frames: 17
Frame Time: 0.01667
38.51970 23.67764 -145.32521 6.16192 -39.48724 -36.06475 -9.44838 44.07349 13.29340 0.01607 0.01726 0.00355 -35.55465 25.34409 39.06036 -0.97977 14.01481 0.56840 -118.70908 -16.86418 -78.42207 -59.15241 46.37761 -77.54619 20.35747 -7.34483 -69.86693 13.90550 17.17844 14.99223 53.81426 23.11308 83.38048 56.23082 15.45812 70.54831 -4.29113 10.02191 45.72913 34.23680 -51.71085 36.43984 -232.30861 60.52348 233.56024 -25.20289 0.00880 -0.00749 -1.02054 10.38624 -1.17024 -53.93140 -42.07702 -12.19338 191.92044 19.95242 -195.26344 70.89185 0.00108 -0.01447 -20.19977 -54.79488 41.60973 
38.55912 24.17336 -145.18330 6.30280 -39.41001 -35.74274 -9.55347 43.69989 12.79359 0.01489 0.02083 0.00492 -35.36861 25.29260 39.62538 -1.00094 14.40198 0.99473 -118.57612 -16.84356 -78.26192 -59.04446 46.45501 -77.64017 20.29910 -7.48800 -69.80063 14.03922 17.68375 15.37100 53.61134 22.91120 83.21467 56.23952 15.49648 70.72691 -4.21292 10.12372 45.65868 32.60773 -51.48311 35.00691 -231.79517 61.71512 233.89951 -24.52597 0.00958 -0.00519 -0.60199 10.23182 -1.67312 -54.48754 -42.19294 -12.58759 192.09985 19.74433 -195.44987 75.86137 -0.00071 -0.01623 -25.08534 -54.40351 41.49107 
38.65294 24.67978 -145.01518 6.51214 -39.25970 -35.41602 -9.61667 43.43231 12.33699 0.01340 0.01974 0.00477 -35.24172 25.11231 40.01621 -1.09791 14.60957 1.35535 -118.45293 -16.81189 -78.12708 -58.99464 46.50475 -77.69173 20.24447 -7.51073 -69.79192 14.02635 17.98935 15.71056 53.40317 22.69629 83.14600 56.23863 15.49020 70.87342 -4.11923 10.14612 45.70721 31.52909 -51.30790 33.92815 -230.46886 63.35071 233.38469 -23.25589 0.00911 -0.00680 -0.21916 10.17638 -2.24908 -54.85136 -41.62327 -12.95544 192.37024 20.26655 -195.90150 80.83061 -0.00113 -0.01684 -29.88133 -54.09355 41.46968 
38.78248 25.26595 -144.81047 6.76361 -39.03905 -35.08923 -9.63089 43.25613 11.91798 0.01200 0.01836 0.00454 -35.15681 24.81705 40.24786 -1.26188 14.66166 1.65416 -118.32649 -16.76890 -78.02206 -58.97046 46.52256 -77.71590 20.23348 -7.54079 -69.70542 13.90647 18.12211 16.00394 53.19696 22.46949 83.15839 56.23734 15.45514 70.99272 -4.08645 10.16260 45.68903 30.74080 -51.16084 33.03386 -230.24431 63.82006 233.49545 -23.24509 0.01060 -0.00659 0.15365 9.74754 -2.72445 -55.12788 -40.62004 -13.33915 192.78046 22.33564 -196.82433 85.50388 -0.03942 -0.04051 -35.38222 -53.01490 40.52477 
38.92486 25.97095 -144.56668 7.03936 -38.76278 -34.75981 -9.59841 43.16304 11.52901 0.01082 0.01700 0.00431 -35.10192 24.42635 40.33800 -1.48046 14.58227 1.89903 -118.19211 -16.71663 -77.94290 -58.95128 46.51022 -77.72059 20.22832 -7.50472 -69.68533 13.71819 18.11103 16.25554 52.99696 22.23070 83.22557 56.24447 15.40164 71.08518 -4.01585 10.12366 45.73928 30.31889 -50.98614 32.42787 -228.98842 65.18275 232.66843 -22.18004 0.00807 -0.00636 0.51935 9.52467 -3.27939 -55.29910 -39.25050 -13.68833 193.30086 23.61687 -197.81923 90.51532 -0.00312 -0.02003 -39.83792 -52.81496 40.86613 
39.07988 26.79800 -144.29871 7.33259 -38.43670 -34.42678 -9.52893 43.13376 11.17124 0.00975 0.01564 0.00407 -35.06708 23.95884 40.30334 -1.73863 14.39297 2.09778 -118.05091 -16.66185 -77.88912 -58.93488 46.46400 -77.70546 20.23523 -7.49177 -69.65981 13.48466 17.98136 16.47968 52.81274 21.98366 83.32967 56.26153 15.32751 71.15070 -3.95799 10.08251 45.75974 30.35258 -50.75379 32.22689 -227.03487 66.94991 231.05145 -20.50549 0.00610 -0.00769 0.85670 9.36306 -3.88793 -55.81106 -38.56170 -14.29296 193.45128 25.22979 -198.64581 90.05959 0.00269 -0.00379 -40.21311 -51.96137 40.37125 
39.25401 27.72202 -144.02496 7.63152 -38.05804 -34.10054 -9.43116 43.14589 10.85620 0.00870 0.01431 0.00380 -35.04274 23.42913 40.16015 -2.01712 14.11478 2.25866 -117.91244 -16.60801 -77.86752 -58.93299 46.38193 -77.66367 20.22564 -7.45262 -69.70930 13.21096 17.75506 16.69492 52.66032 21.73661 83.46655 56.28065 15.22711 71.19112 -3.87153 10.02112 45.83517 30.44231 -50.47924 32.14462 -226.51761 67.61340 230.49397 -20.01629 0.00855 -0.00602 1.17097 8.83393 -4.36024 -56.55175 -38.45802 -15.07338 194.02145 26.76642 -199.57491 89.85403 0.00183 -0.00206 -41.08622 -50.62679 39.37180 
39.43185 28.72465 -143.74274 7.90769 -37.62338 -33.79576 -9.30050 43.18441 10.59127 0.00758 0.01305 0.00352 -35.01783 22.85009 39.92543 -2.29496 13.76979 2.39534 -117.78860 -16.55102 -77.88745 -58.96019 46.26300 -77.59171 20.21382 -7.43312 -69.77597 12.89486 17.45328 16.91632 52.55793 21.50387 83.64622 56.28695 15.09499 71.21077 -3.78665 9.97342 45.90118 30.25572 -50.17206 31.91530 -226.82861 67.93645 230.76823 -19.96758 0.00718 -0.00650 1.47487 8.13485 -4.72949 -56.84562 -37.75914 -15.47823 194.57698 27.80483 -200.45868 90.20884 -0.00292 0.00620 -41.06735 -49.99976 39.67180 
39.62335 30.04364 -143.40811 8.14905 -37.11467 -33.50016 -9.12700 43.22322 10.37284 0.00420 0.01208 0.00378 -34.97058 22.22855 39.60412 -2.56650 13.38040 2.57477 -117.69507 -16.44097 -77.99798 -59.02938 46.05124 -77.50890 20.24754 -7.34641 -69.85265 12.41297 17.09433 17.24561 52.62073 21.25994 83.94292 56.25924 14.88660 71.20963 -3.51361 9.91380 45.95182 29.93844 -49.74526 31.64026 -225.64970 69.67027 230.04648 -18.32885 0.00347 -0.00493 1.84585 7.64731 -5.35940 -56.71415 -36.60289 -15.47534 195.17654 30.30087 -201.28020 90.01416 0.00021 -0.00352 -41.17079 -48.73475 39.17987 
39.82536 31.50654 -143.05103 8.55682 -34.52165 -32.71968 -7.37611 41.52220 9.35234 0.00361 0.01083 0.00368 -34.91166 21.58989 39.21929 -2.83292 12.95787 2.78696 -117.62962 -16.29781 -78.15268 -59.12587 45.83568 -77.42146 20.23020 -7.24375 -69.85275 11.91205 16.69549 17.56717 52.71712 21.09370 84.32706 56.19702 14.65354 71.17992 -3.24199 9.94621 46.03506 31.44419 -50.91988 32.45657 -223.45592 72.11416 228.42134 -15.92592 -0.00033 -0.00843 2.13356 7.41970 -6.06536 -56.45640 -35.93879 -17.16677 195.69742 33.50825 -201.88159 89.95027 -0.00078 -0.00147 -41.82712 -47.38454 37.98030 
40.03943 33.18574 -142.66774 8.84882 -32.30316 -32.03531 -5.93725 40.12979 8.57456 0.00371 0.00962 0.00351 -34.83775 20.94625 38.78542 -3.12848 12.51768 3.03455 -117.54678 -16.13688 -78.30235 -59.21569 45.67514 -77.38341 20.31336 -7.07744 -69.73138 11.41862 16.27965 17.85690 52.81357 20.99952 84.76047 56.10046 14.45108 71.14148 -2.86872 10.02194 46.04683 32.46254 -51.62035 33.01031 -223.22923 73.66676 228.43703 -14.72786 0.00306 -0.00464 2.31634 6.94849 -6.55861 -55.81040 -35.11064 -18.06119 196.00835 37.03803 -202.13412 90.01572 -0.00270 0.00024 -42.74317 -46.06570 36.48876 
40.24613 35.08288 -142.26003 9.02691 -30.41073 -31.43001 -4.72636 39.00488 7.98440 0.00399 0.00862 0.00337 -34.74017 20.29767 38.31208 -3.44819 12.06788 3.29904 -117.43085 -15.99091 -78.42252 -59.25571 45.59869 -77.43311 20.46931 -6.86000 -69.45217 10.92145 15.84877 18.11028 52.90972 20.95341 85.21488 55.95788 14.32189 71.10671 -2.57457 10.20071 46.03138 32.70455 -51.88911 33.00146 -224.67955 75.07475 230.09576 -14.17699 0.00167 -0.00532 2.34186 6.60196 -6.79346 -54.91661 -34.18994 -18.31175 196.03752 40.74928 -201.98724 90.00196 -0.00122 0.00114 -43.75222 -44.84435 34.75584 
40.41163 37.14487 -141.81879 9.10426 -28.79089 -30.88977 -3.88721 37.67215 7.63702 0.00644 0.01228 0.00393 -34.49000 19.95015 38.07175 -3.56311 12.00616 3.60142 -117.29626 -15.89718 -78.53601 -59.17730 45.58694 -77.59203 20.83596 -6.58853 -68.96667 10.61339 15.79123 18.30648 53.01876 20.89122 85.66540 55.75051 14.28651 71.09175 -2.39908 10.41568 45.91601 32.11235 -51.76410 32.32800 -227.91789 76.59673 233.62625 -13.98999 -0.00086 -0.00592 2.21980 6.42155 -6.81157 -53.78888 -32.99543 -18.01221 195.67746 43.39033 -201.53584 90.00369 -0.00065 0.01109 -43.47897 -44.53909 34.35332 
40.51732 39.31948 -141.33679 9.09026 -27.39259 -30.40313 -3.16556 36.59436 7.41120 0.00625 0.01173 0.00400 -34.19538 19.52438 37.74969 -3.68214 11.86161 3.89259 -117.12496 -15.87611 -78.65674 -58.90643 45.61132 -77.88770 21.44559 -6.27947 -68.23598 10.22847 15.62403 18.48062 53.14939 20.80683 86.14140 55.41483 14.34742 71.10773 -2.53264 10.67434 45.71746 30.79839 -51.26669 31.03463 -233.53195 78.22408 239.63388 -14.04851 -0.00339 -0.00604 2.00244 6.34790 -6.68455 -52.56810 -31.54765 -17.33549 195.11360 47.14043 -200.86639 89.81432 0.00199 -0.00274 -43.98107 -43.72406 33.15122 
40.58273 41.59967 -140.81931 9.00630 -26.16318 -29.97179 -2.56271 35.70364 7.32258 0.00559 0.01089 0.00425 -33.83908 19.01428 37.35229 -3.77811 11.63353 4.16702 -116.92133 -15.96454 -78.81781 -58.33500 45.64565 -78.35977 22.43775 -5.92942 -67.19844 9.76923 15.33720 18.62204 53.31984 20.68051 86.66692 54.85871 14.50477 71.17645 -3.10317 10.93192 45.36902 28.96767 -50.42626 29.27223 -242.52325 79.81707 249.11377 -14.24264 -0.00542 -0.00567 1.74389 6.28895 -6.47749 -51.73777 -30.77511 -16.84124 194.29797 50.77456 -199.93312 89.42706 0.00747 -0.00243 -44.98871 -42.43784 31.44774 
40.64341 44.32314 -140.18494 8.84951 -25.02163 -29.58580 -2.05975 34.91476 7.38705 0.00164 0.01035 0.00610 -33.36776 18.40732 36.87032 -3.98414 11.21148 4.48091 -116.42649 -16.61411 -79.02638 -51.21644 46.11198 -83.54527 34.75001 5.81928 -58.65949 8.85586 14.71374 18.82817 53.96567 20.16025 87.41392 49.85554 17.05579 72.82339 -13.79434 22.97107 36.19701 26.67607 -49.18233 27.05084 -257.13739 81.26675 264.35632 -14.44750 -0.00759 -0.00500 1.46378 6.13061 -6.25037 -50.87480 -29.43977 -16.06931 193.09891 55.52986 -198.69319 88.80527 0.01576 -0.00085 -46.18615 -40.70013 29.62263 
40.71483 47.13574 -139.51476 8.62364 -23.93594 -29.23411 -1.88666 33.79827 7.70339 0.00445 0.01399 0.00694 -32.59282 17.99836 36.53414 -3.70988 11.05918 4.70699 -116.10379 -17.49860 -79.57679 -40.38464 46.09267 -90.87472 30.71267 -7.28991 -57.74861 8.34498 14.36674 19.03823 54.56866 19.33938 88.07928 41.90322 20.38542 75.46690 -11.84897 6.53837 40.26613 24.13493 -47.52922 24.54597 -279.07849 82.01234 287.04099 -14.45505 -0.00760 -0.00388 1.20952 6.04626 -5.99304 -50.05210 -27.62087 -14.99348 190.88167 61.15007 -196.47659 87.92529 0.02504 0.00243 -47.49205 -38.59712 27.68921 
